<svg width="23" height="24" fill="none" xmlns="http://www.w3.org/2000/svg">
  <path fill-rule="evenodd" clip-rule="evenodd" d="M14.711 3.763c.783-1.01 1.376-2.438 1.162-3.896-1.28.09-2.775.908-3.647 1.974-.796.967-1.45 2.405-1.194 3.8 1.398.044 2.842-.794 3.68-1.878zm6.914 13.712c-.56 1.248-.83 1.805-1.55 2.91-1.006 1.543-2.424 3.463-4.183 3.477-1.562.017-1.964-1.023-4.084-1.01-2.12.011-2.561 1.03-4.125 1.014-1.758-.015-3.101-1.748-4.107-3.29C.762 16.266.466 11.207 2.2 8.516c1.235-1.91 3.182-3.028 5.01-3.028 1.862 0 3.033 1.027 4.575 1.027 1.495 0 2.406-1.03 4.559-1.03 1.63 0 3.356.893 4.585 2.434-4.028 2.221-3.376 8.008.695 9.556z" fill="#8795A1"/>
</svg>
