<svg width="23" height="24" fill="none" xmlns="http://www.w3.org/2000/svg">
  <path fill-rule="evenodd" clip-rule="evenodd" d="M13.886 3.97c0 .385.32.697.717.697a.707.707 0 00.716-.697.705.705 0 00-.716-.696.705.705 0 00-.717.696zm-5.726 0c0 .385.32.697.716.697a.707.707 0 00.717-.697.705.705 0 00-.717-.696.705.705 0 00-.716.696zm7.132-2.486l-.267.393c2.024.918 3.394 2.658 3.394 4.65H5.057c0-1.992 1.37-3.732 3.396-4.65l-.269-.393-.266-.386-.595-.87a.23.23 0 01.067-.321.244.244 0 01.332.064l.638.932.268.39.271.399a8.04 8.04 0 012.84-.508c1.014 0 1.975.182 2.838.508l.273-.398.907-1.323a.24.24 0 01.33-.064c.11.07.14.214.066.321l-.594.87-.267.386zM5.057 7.454H18.42v10.22c0 .81-.676 1.471-1.512 1.471h-1.091c.037.123.06.251.06.387v2.942c0 .769-.643 1.393-1.435 1.393-.79 0-1.43-.624-1.43-1.393v-2.942c0-.136.02-.264.056-.387h-2.66c.037.123.059.251.059.387v2.942c0 .769-.643 1.393-1.433 1.393s-1.432-.624-1.432-1.393v-2.942c0-.136.02-.264.058-.387H6.57c-.836 0-1.513-.66-1.513-1.472V7.453zm-2.386 0c-.792 0-1.433.623-1.433 1.393v5.962c0 .769.64 1.392 1.433 1.392.79 0 1.43-.623 1.43-1.392V8.847c0-.77-.64-1.393-1.43-1.393zm16.704 1.393c0-.77.64-1.393 1.432-1.393.79 0 1.431.623 1.431 1.393v5.962c0 .769-.64 1.392-1.43 1.392-.793 0-1.433-.623-1.433-1.392V8.847z" fill="#8795A1"/>
</svg>
