<svg width="23" height="24" fill="none" xmlns="http://www.w3.org/2000/svg">
  <path fill-rule="evenodd" clip-rule="evenodd" d="M8.328 19.275H2.379A2.371 2.371 0 010 16.913V5.363A2.371 2.371 0 012.38 3h18.24A2.37 2.37 0 0123 5.362v11.55a2.37 2.37 0 01-2.38 2.363h-5.948v1.182c0 1.087.888 1.968 1.982 1.968h.398s.793 0 .793.787c0 .788-.793.788-.793.788H5.948s-.793 0-.793-.788c0-.787.793-.787.793-.787h.398a1.975 1.975 0 001.982-1.968v-1.182zm1.586 0v1.182c0 .729-.221 1.405-.601 1.968h4.374c-.38-.563-.6-1.24-.6-1.968v-1.182H9.913zm-8.328-3.15v.788a.79.79 0 00.793.787h18.242a.79.79 0 00.793-.787v-.788H1.586z" fill="#8795A1"/>
</svg>
