<svg width="130" height="120" viewBox="0 0 2443 1247" fill="none" xmlns="http://www.w3.org/2000/svg">
<g clip-path="url(#clip0)">
<path d="M1084.3 325.313C1085.93 325.317 1087.96 325.323 1089.59 325.327C1105.46 326.591 1115.2 338.421 1122.89 351.874C1140.72 383.671 1165.76 457.818 1175.45 486.744C1182.71 508.336 1189.58 530.335 1196.44 551.926C1202.49 570.259 1210.98 594.297 1212.15 612.616C1212.54 619.13 1210.48 627.672 1205.58 632.951C1199.87 639.041 1184.39 643.883 1175.43 644.673C1153.04 646.241 1142.08 634.815 1133.18 614.846C1111.73 567.165 1087.58 468.598 1079.96 426.246C1077.55 412.4 1070.35 367.2 1072.03 346.853C1072.86 339.935 1074.53 326.101 1084.3 325.313Z" fill="white"/>
<path d="M981.644 204.147C981.644 204.147 986.571 188.286 991.488 176.088C999.689 153.723 1017.28 121.208 1031.17 100.08C1035.67 93.579 1040.57 86.2656 1040.57 86.2656C1040.57 86.2656 1030.39 90.3085 1024.68 93.1424C1011.23 100.026 994.489 119.519 986.724 131.302C973.647 150.804 961.765 179.672 976.368 198.435C978.396 200.882 981.644 204.147 981.644 204.147ZM1029.49 272.251C1027.45 275.909 1026.61 284.047 1024.97 289.741C1024.14 292.995 1022.1 297.467 1020.46 299.091C1014.75 306.402 1009.04 308.015 1000.5 304.329C988.716 298.598 979.385 287.176 975.348 274.954C973.733 269.659 972.937 263.144 970.507 258.66C966.457 251.322 956.296 245.597 950.208 239.068C942.494 231.72 934.392 217.452 930.755 207.674C920.254 177.118 928.484 144.17 943.213 115.717C957.944 86.8573 980.81 60.0546 1007.73 38.5541C1033.02 18.2704 1072.97 -1.9739 1107.56 0.154332C1118.96 0.592019 1135.63 5.52131 1145.38 12.4672C1147.41 14.1008 1149.44 15.7344 1151.07 16.1458C1152.7 16.5572 1156.36 15.7529 1159.62 15.7617C1170.2 14.5691 1186.88 18.2773 1194.2 21.5533C1208.83 28.5123 1218.18 36.271 1225.47 49.7228C1239.64 76.6253 1232.22 112.831 1218.72 137.217C1195.81 179.08 1170.49 211.168 1133.78 239.154C1117.87 251.323 1091.38 265.905 1070.2 269.918C1063.68 271.122 1056.76 271.51 1050.25 272.714C1046.99 273.519 1034.37 273.892 1033.15 273.075C1031.93 272.257 1029.49 271.844 1029.49 272.251ZM1083.81 202.794C1109.89 193.502 1133.54 178.506 1153.13 158.614C1172.72 139.129 1199.27 104.602 1187.54 76.0781C1183.9 67.5205 1175.78 61.3931 1166.42 60.1468C1154.62 58.487 1149.73 60.916 1137.9 68.6178C1129.34 74.2933 1125.26 77.1315 1117.91 84.8454C1095.87 107.58 1067.67 151.057 1054.97 182.772C1052.1 190.09 1049.23 198.63 1046.77 204.322C1045.13 207.981 1044.31 211.235 1044.71 211.643C1045.52 214.494 1073.22 206.429 1083.81 202.794Z" fill="white"/>
<path d="M1034.72 446.069C1041.19 461.961 1045.58 494.128 1046.39 498.201C1047.58 507.973 1046.7 531.578 1046.29 534.427C1044.62 547.854 1042.15 560.873 1038.85 573.889C1033.91 595.041 1017.94 631.225 1006.91 647.883C966.037 709.643 890.602 759.505 821.328 788.625C774.466 808.037 718.255 822.946 664.106 828.092C648.635 829.271 633.165 830.451 617.288 831.222C617.288 831.222 620.518 841.813 621.717 849.55C622.115 852.808 622.088 862.577 621.673 865.832C620.022 874.375 615.122 880.06 606.562 884.515C596.372 889.779 584.965 893.411 573.979 892.161C555.669 889.669 545.529 876.21 537.84 859.501C531.364 846.051 522.066 822.418 522.066 822.418C522.066 822.418 508.233 819.939 496.435 817.872C461.448 811.265 427.282 801.811 394.345 789.512C385.399 786.231 347.185 769.033 338.649 764.533C314.261 751.849 291.909 738.764 272.424 719.174C256.997 704.072 249.713 688.585 251.805 667.425C255.141 637.72 287.788 606.466 310.632 587.804C327.764 574.011 381.999 537.117 406.043 526.598C417.453 521.745 434.571 513.243 435.796 512.025C436.204 511.619 436.612 511.213 436.613 510.806C437.022 509.993 430.175 483.111 427.352 473.334C424.528 463.965 414.119 399.218 412.528 385.375C411.734 378.046 409.37 348.733 412.651 339.787C414.701 334.094 421.218 332.484 427.726 334.129C461.485 343.582 487.783 402.673 498.69 433.637C505.559 452.379 514.03 480.894 514.03 480.894C514.03 480.894 546.62 470.806 566.986 465.569C586.536 460.737 609.339 457.542 630.511 455.157C657.791 451.974 711.529 448.456 744.888 455.058C772.145 460.423 800.6 474.338 813.98 493.912C826.55 511.855 829.362 525.702 824.013 546.854C818.251 570.446 800.692 591.565 778.692 598.832C772.173 601.257 746.52 604.851 737.169 601.163C733.51 599.525 732.3 595.451 733.938 591.792C734.348 590.572 744.142 581.237 750.263 575.555C753.12 572.713 755.569 569.871 757.613 566.62C761.701 560.118 765.383 553.208 762.958 546.689C759.724 538.54 749.556 535.663 740.196 534.824C695.842 530.227 612.781 539.773 573.683 548.215C558.207 551.43 537.026 557.071 537.026 557.071L601.586 767.275C601.586 767.275 620.314 765.697 634.566 763.701C642.71 762.501 677.732 756.083 686.693 753.665C755.937 735.942 830.498 708.464 884.761 660.987C908.832 640.293 929.247 616.74 942.346 589.504C959.539 553.324 961.283 510.183 946.331 469.846C929.761 425.842 882.665 381.348 847.728 356.018C755.918 289.017 620.885 250.8 507.764 237.877C392.201 224.948 283.104 229.132 172.318 256.105C143.808 262.948 82.2941 281.913 53.7548 299.339C49.6779 301.77 45.5999 304.609 41.5241 306.633C38.6705 308.253 33.7762 311.904 32.9578 313.529C32.5486 314.342 31.7312 315.561 31.7312 315.561C31.7312 315.561 33.7653 315.974 36.2064 316.387C39.8686 316.804 54.1224 313.993 61.4511 313.199C68.3729 312.404 75.6951 314.051 79.7544 318.133C83.4079 321.806 85.0273 325.067 82.9789 329.945C78.4731 340.516 51.1855 346.548 38.9702 348.144C26.3478 349.738 10.0654 350.101 4.39329 340.317C-2.49559 328.901 -0.0161638 315.069 3.27623 301.646C9.85991 275.206 24.965 258.558 49.8345 243.565C85.3043 222.087 131.356 201.046 167.205 189.745C248.276 163.506 329.703 155.991 415.991 157.444C465.239 158.391 531.163 164.267 580.798 172.948C616.194 179.149 673.549 192.735 706.084 202.999C716.658 206.284 778.059 229.243 787.817 233.339C810.99 243.577 833.347 254.628 855.295 266.491C894.313 287.761 945.098 322.903 973.506 354.321C980.406 361.666 986.084 369.415 995.015 377.987C997.857 380.844 1012.05 399.199 1015.29 404.906C1018.54 410.613 1022.99 418.766 1023.4 418.767C1024.2 422.432 1033.11 439.145 1034.72 446.069ZM453.917 584.526C453.917 584.526 423.359 595.841 402.579 603.926C376.093 614.437 327.186 637.914 300.27 656.972C292.114 662.649 276.206 675.224 277.401 684.996C278.595 694.768 286.313 700.894 295.252 706.617C300.535 709.887 327.766 724.614 335.084 727.89C366.388 741.813 426.582 759.478 468.9 764.476C483.549 766.144 506.746 767.834 506.746 767.834C506.746 767.834 487.777 707.542 471.25 647.663C462.381 615.891 453.917 584.526 453.917 584.526Z" fill="white"/>
<path d="M1391.92 361.552C1393.55 361.15 1393.95 361.151 1395.18 361.154C1421.24 357.561 1446.89 355.188 1468.45 358.095C1487.98 360.997 1500.99 367.544 1515.19 382.236C1536.71 404.681 1548.41 440.938 1543.44 472.674C1539.72 496.272 1523.78 519.43 1507.05 534.038C1489.92 549.459 1471.57 559.586 1449.57 568.481C1411.27 583.846 1366.48 587.795 1326.2 580.767C1302.2 576.633 1271.7 565.968 1252.21 547.192C1238 533.314 1231.96 511.725 1239.33 492.614C1250.41 462.116 1288.31 445.53 1318.45 438.284C1341.26 432.647 1384.01 428.285 1408.02 429.571C1414.53 429.995 1438.94 432.503 1444.23 434.959C1447.89 437.004 1450.73 440.268 1450.31 444.338C1449.86 460.618 1415.21 478.841 1405.43 483.699C1378.53 495.838 1360.64 489.684 1324.83 485.925C1315.88 485.086 1304.48 484.649 1295.93 486.254C1280.86 489.063 1264.56 497.974 1266.14 514.666C1266.93 523.216 1278.72 528.132 1287.27 529.376C1306.8 531.871 1321.45 530.689 1338.56 525.851C1389.07 512.555 1442.86 488.277 1475.54 447.662C1480.03 441.975 1483.71 434.659 1481.7 427.327C1481.29 426.511 1477.65 418.768 1475.21 418.761C1474.8 418.76 1474.39 419.166 1473.99 419.168C1473.17 419.166 1470.73 417.124 1468.7 415.898C1464.64 413.037 1451.21 411.373 1448.77 410.96C1417.85 407.213 1365.32 416.027 1338.44 421.246C1310.34 426.869 1265.95 435.297 1254.95 436.895C1243.96 438.494 1231.34 439.681 1221.17 438.026C1210.59 436.369 1198.8 429.825 1193.13 420.041C1183 402.511 1182.66 377.681 1188.81 359.788C1204.82 312.615 1264.74 279.806 1311.19 259.986C1356.02 240.976 1430.97 220.012 1483.45 231.143C1491.58 232.793 1496.05 235.248 1496.85 243.391C1498.03 258.454 1489.85 270.236 1478.03 277.938C1465.8 286.046 1438.5 295.741 1426.28 299.779C1372.09 318.356 1305.29 335.679 1257.18 364.856C1253.51 367.289 1246.99 370.934 1245.35 374.186C1239.62 385.568 1263.65 381.155 1269.35 380.763C1270.98 380.768 1271.39 380.769 1272.61 380.365L1391.92 361.555" fill="white"/>
<path d="M1621.88 518.066C1597.46 516.372 1582.09 482.139 1576.03 464.214C1555.83 406.36 1547.92 320.048 1552.16 259.411C1553.43 241.912 1554.31 214.236 1572.23 210.62C1584.45 208.211 1595.83 215.161 1605.58 222.514C1631.98 243.751 1657.97 265.394 1683.96 287.444C1708.33 308.675 1731.88 329.904 1754.62 349.096C1757.46 351.546 1759.9 353.588 1762.75 354.816C1766.4 356.454 1768.85 355.647 1769.67 353.207C1770.08 351.987 1760.39 322.654 1757.96 316.949C1753.92 307.984 1751.09 300.242 1747.85 292.5C1738.15 269.68 1721.13 238.292 1708.57 217.5C1694.8 193.855 1678.99 169.797 1666.43 146.969C1662.38 139.632 1658.33 131.887 1655.91 124.554C1652.68 113.556 1657.99 105.429 1670.61 106.277C1695.43 107.972 1739.29 147.98 1752.68 162.669C1757.14 167.565 1777.43 193.263 1782.29 200.603C1799.32 225.478 1813.49 252.38 1824 280.494C1834.91 309.423 1845.38 353.411 1840.81 385.961C1839.15 398.168 1833.81 415.249 1828.09 424.595C1819.1 439.631 1797.07 455.446 1777.14 450.508C1755.58 445.159 1710.11 401.077 1702.4 393.729C1676.01 368.015 1628.12 316.193 1621.62 310.884C1620 309.251 1617.96 308.839 1615.93 308.426C1613.9 308.421 1614.29 312.492 1614.69 314.936C1616.68 333.258 1638.03 415.943 1638.43 418.386C1642.05 432.235 1650.92 466.45 1651.68 484.362C1652.06 496.167 1652.03 505.529 1643.47 513.239C1637.35 518.514 1631.24 518.498 1621.88 518.066Z" fill="white"/>
<path d="M1926.18 426.08C1922.12 424.034 1918.46 421.989 1914.39 419.943C1913.99 419.535 1902.62 409.735 1899.78 406.472C1897.34 403.616 1895.72 401.576 1894.1 399.537C1881.52 382.814 1876.28 364.484 1874.71 343.314C1873.14 323.365 1876.4 321.745 1878.92 293.26C1878.92 291.631 1878.92 290.41 1878.93 288.782C1878.12 285.117 1865.97 263.104 1863.55 255.364C1859.92 243.957 1866.46 232.985 1881.13 227.326C1882.35 226.919 1883.57 226.52 1884.39 226.113C1890.1 222.872 1890.54 210.255 1891.38 200.082C1892.23 185.838 1893.92 163.863 1893.92 163.863C1893.92 163.863 1873.56 165.029 1862.17 163.777C1849.55 162.522 1839.39 159.646 1830.86 150.668C1821.12 140.059 1823.18 132.331 1835 124.629C1839.49 121.792 1874.54 103.976 1885.54 99.1214C1899.4 93.0531 1912.85 86.9838 1926.3 81.3215C1938.11 76.4689 1991.9 54.2267 2009.42 49.7965C2036.7 42.9502 2057.45 49.1115 2079.38 67.4871C2091.16 77.2876 2101.3 90.3401 2090.68 101.709C2074.35 119.167 2010.81 138.127 1999.4 141.352C1981.07 147.001 1955 153.851 1955 153.851L1954.47 200.659C1954.47 200.659 2000.09 187.349 2025.75 180.092C2031.86 178.48 2038.38 176.869 2042.04 176.472C2055.89 175.695 2063.6 184.264 2068.04 198.522C2073.69 215.226 2072.44 223.77 2059.81 229.841C2053.29 233.08 1975.08 255.664 1964.48 259.706C1957.96 262.537 1951.44 265.369 1951.44 265.369C1951.44 265.369 1950.18 281.647 1949.32 297.926C1948.87 315.02 1948.82 331.709 1948.82 331.709C1948.82 331.709 1952.9 330.906 1956.15 329.694C1961.86 328.082 1967.16 325.654 1971.23 323.629C1994.05 312.701 2027.88 297.324 2056 284.375C2071.08 277.496 2078.41 274.259 2089.79 282.024C2099.54 288.969 2105.63 295.905 2109.26 306.498C2112.49 316.682 2106.77 326.029 2099.01 336.184C2074.91 368.275 2029.62 408.857 1991.31 424.221C1973.79 431.501 1968.91 430.673 1951.81 431.034C1948.56 431.026 1935.94 428.956 1935.94 428.549C1935.53 429.362 1928.62 426.902 1926.18 426.081" fill="white"/>
<path d="M2269.89 361.065C2269.89 361.065 2268.62 381.414 2268.17 397.694C2267.28 425.37 2268.71 498.64 2270.69 521.032C2273.44 554.416 2279.32 641.538 2278.9 643.979C2278.49 646.827 2277.67 647.639 2275.22 650.481C2269.1 656.978 2265.84 656.155 2255.67 654.092C2242.66 651.208 2230.86 647.92 2218.67 639.339C2195.11 621.773 2187.09 578.606 2183.49 552.953C2170.71 463.371 2171.64 421.856 2180.44 326.634C2180.44 325.006 2180.44 324.598 2179.64 323.782C2163.4 305.014 2150.04 280.149 2143.99 258.967C2124.63 191.754 2144.79 114.065 2173.05 48.2011C2175.1 43.3222 2189.43 11.6121 2199.2 9.19615C2208.98 6.78039 2213.84 17.7832 2215.03 27.5553C2219.01 60.1288 2206.29 97.9489 2198.48 128.456C2189.84 162.623 2189.8 175.648 2189.32 204.953C2189.3 209.431 2191.69 230.196 2192.5 232.64C2194.92 239.567 2198.97 248.532 2198.97 248.532C2198.97 248.532 2215.37 202.581 2226.85 173.713C2233 157.855 2237.91 147.285 2243.23 135.903C2248.96 124.114 2271.46 81.8428 2278.41 70.0575C2292.72 46.0809 2298.86 35.9215 2317.22 18.8754C2331.5 5.48169 2345.77 -0.992465 2365.29 5.16573C2395.79 15.0166 2417.27 47.2301 2428.59 75.346C2441.94 109.166 2445.9 149.88 2438.89 184.052C2430.64 224.326 2413.05 256.842 2385.69 288.924C2357.52 321.411 2321.62 348.586 2281.71 358.654C2276.01 359.453 2269.9 361.065 2269.9 361.065H2269.89ZM2359.82 68.6485C2344.3 91.4007 2328.31 133.282 2320.52 154.427C2310.67 182.893 2302.85 214.214 2293.83 239.833C2291.78 245.526 2286.84 265.05 2287.66 265.459C2288.47 266.276 2298.24 263.453 2307.62 258.593C2328 248.879 2352.48 225.744 2364.74 209.089C2382.72 183.494 2392.16 152.992 2391.03 120.833C2390.66 106.179 2384.22 76.8548 2370.82 66.6428C2368.38 65.0081 2362.69 64.1788 2359.82 68.6485Z" fill="white"/>
<path d="M867.833 840.912C889.423 834.457 919.527 840.644 935.364 854.526L1082.36 986.801C1087.63 991.292 1090.08 990.078 1088.06 983.56L1042.46 839.346C1040.44 832.829 1036.8 822.236 1037.23 815.317C1038.08 799.852 1049.52 785.637 1066.63 780.391L1124.88 762.639C1146.47 756.184 1168.83 766.42 1174.89 785.974L1273.76 1102.51C1279.81 1122.06 1267.14 1143.19 1245.55 1149.65L1160.81 1175.06C1153.48 1177.08 1143.31 1175.42 1138.03 1170.52L974.788 1027.62C969.509 1023.13 967.063 1024.34 969.081 1030.86L1015.9 1179.96C1021.95 1199.52 1009.27 1220.65 987.684 1227.1L929.43 1244.86C907.84 1251.31 885.48 1241.07 879.427 1221.52L780.555 904.989C774.502 885.435 787.177 864.303 808.767 857.848L867.833 840.912Z" fill="white"/>
<path d="M1448.79 1010.11L1592.07 855.01C1602.69 843.235 1599.06 831.014 1583.6 827.309L1375.33 777.091C1359.88 773.386 1350.9 782.316 1355.74 797.39L1420.72 1003.93C1425.56 1019 1438.17 1021.89 1448.79 1010.11ZM1674.81 813.715C1710.32 927.781 1645.28 1048.9 1529.59 1084C1413.49 1119.1 1290.74 1054.87 1255.22 940.803C1219.71 826.737 1284.76 705.616 1400.45 670.515C1516.14 635.414 1639.3 699.65 1674.81 813.715Z" fill="white"/>
<path d="M2000.34 547.576L2012.96 699.841C2014.14 713.684 2009.66 714.893 2003.18 702.664L1919.75 546.952C1910.03 529.017 1885.63 519.182 1865.67 525.641L1843.67 532.502C1823.31 538.552 1808.59 560.493 1810.17 580.849L1825.97 757.951C1827.16 771.794 1822.68 773.003 1816.2 760.775L1731.54 605.059C1721.82 587.124 1697.43 577.289 1677.06 583.747L1621.25 601.1C1600.88 607.557 1591.48 622.592 1599.99 635.233L1803.11 934.95C1814.46 952.077 1840.49 960.694 1860.86 954.644L1905.67 940.925C1919.11 936.89 1929.32 922.265 1928.14 908.829L1912.74 732.135C1911.56 718.292 1915.63 717.082 1922.11 729.311L2003.1 885.423C2009.58 897.651 2025.43 904.207 2038.88 899.766L2086.54 885.241C2106.91 878.783 2123.25 857.254 2123.3 836.495L2124.66 483.193C2124.72 462.434 2108.47 450.993 2088.1 457.044L2031.88 474.395C2019.66 478.025 2009.46 487.36 2003.73 498.742C1997.18 510.935 1999.16 533.734 2000.34 547.577" fill="white"/>
</g>
<defs>
<clipPath id="clip0">
<rect width="2443" height="1247" fill="white"/>
</clipPath>
</defs>
</svg>
