<svg width="22" height="22" fill="none" xmlns="http://www.w3.org/2000/svg">
  <path fill-rule="evenodd" clip-rule="evenodd" d="M15.898 18.384c-.088-.515-.543-3.022-1.663-6.1 2.757-.44 5.146.316 5.322.373a8.543 8.543 0 01-3.66 5.727zm-4.773 1.458a8.507 8.507 0 01-5.44-1.958c.112.091.19.15.19.15s1.638-3.57 6.703-5.336c.019-.007.039-.011.057-.017 1.202 3.122 1.697 5.737 1.824 6.483a8.514 8.514 0 01-3.334.678zM2.585 11.3c0-.09.004-.18.006-.27.152.005 4.371.1 8.768-1.216.245.479.479.966.693 1.452-.113.03-.225.065-.336.102-4.609 1.489-6.947 5.635-6.947 5.635l.004.005A8.507 8.507 0 012.584 11.3zM7.48 3.578a51.079 51.079 0 013.172 4.92c-4.101 1.09-7.66 1.047-7.885 1.043A8.543 8.543 0 017.48 3.578zm1.598-.569l-.001.003-.026.004c.01-.002.018-.003.027-.007zm7.686 1.884c-.02.032-1.237 1.884-4.461 3.091a43.39 43.39 0 00-3.192-4.982 8.506 8.506 0 017.653 1.89zm2.898 6.323c-.123-.027-3.014-.65-5.948-.28-.061-.146-.121-.293-.185-.44a24.809 24.809 0 00-.568-1.24c3.373-1.376 4.742-3.355 4.758-3.379a8.507 8.507 0 011.943 5.339zm1.26-1.928a10.033 10.033 0 00-.585-1.88 9.992 9.992 0 00-3.622-4.398 9.97 9.97 0 00-1.698-.923 10.021 10.021 0 00-9.486.923 10.064 10.064 0 00-2.699 2.7 9.949 9.949 0 00-1.709 5.59 9.9 9.9 0 00.787 3.893c.25.593.561 1.167.922 1.7.358.53.768 1.026 1.22 1.48a10.015 10.015 0 003.179 2.141 9.843 9.843 0 001.879.582 9.949 9.949 0 002.014.205 9.91 9.91 0 002.014-.205 9.959 9.959 0 003.577-1.504 10.062 10.062 0 002.7-2.698 9.984 9.984 0 001.506-3.578 10.123 10.123 0 000-4.028z" fill="#8795A1"/>
</svg>
