<svg width="22" height="22" fill="none" xmlns="http://www.w3.org/2000/svg">
  <path fill-rule="evenodd" clip-rule="evenodd" d="M5.99 11.3a5.135 5.135 0 1110.27 0 5.135 5.135 0 01-10.27 0zm5.135 3.334a3.333 3.333 0 110-6.667 3.333 3.333 0 010 6.667z" fill="#8795A1"/>
  <path d="M16.463 7.163a1.2 1.2 0 100-2.4 1.2 1.2 0 000 2.4z" fill="#8795A1"/>
  <path fill-rule="evenodd" clip-rule="evenodd" d="M11.125 1.3c-2.716 0-3.057.012-4.123.061-1.065.049-1.792.218-2.428.465a4.902 4.902 0 00-1.77 1.153A4.902 4.902 0 001.65 4.75c-.247.636-.417 1.363-.465 2.428-.049 1.066-.06 1.407-.06 4.123s.011 3.056.06 4.123c.048 1.064.218 1.791.465 2.427a4.902 4.902 0 001.153 1.771 4.902 4.902 0 001.771 1.154c.636.247 1.363.416 2.428.465 1.066.048 1.407.06 4.123.06s3.056-.012 4.123-.06c1.064-.049 1.791-.218 2.427-.465a4.902 4.902 0 001.771-1.154 4.904 4.904 0 001.154-1.77c.247-.637.416-1.364.465-2.428.048-1.067.06-1.407.06-4.123s-.012-3.057-.06-4.123c-.049-1.065-.218-1.792-.465-2.428a4.903 4.903 0 00-1.154-1.77 4.902 4.902 0 00-1.77-1.154c-.637-.247-1.364-.416-2.428-.465-1.067-.049-1.407-.06-4.123-.06zm0 1.803c2.67 0 2.986.01 4.04.058.976.044 1.505.207 1.858.344.466.182.8.398 1.15.748.35.35.566.683.747 1.15.137.352.3.882.345 1.857.048 1.054.058 1.37.058 4.04s-.01 2.987-.058 4.042c-.045.975-.208 1.504-.345 1.856-.181.467-.398.8-.748 1.15-.35.35-.683.567-1.15.748-.352.137-.881.3-1.856.345-1.055.048-1.37.058-4.041.058-2.67 0-2.987-.01-4.041-.058-.975-.045-1.505-.208-1.857-.345a3.099 3.099 0 01-1.15-.748 3.098 3.098 0 01-.748-1.15c-.137-.352-.3-.881-.344-1.856-.048-1.055-.058-1.371-.058-4.041 0-2.67.01-2.987.058-4.041.044-.975.207-1.505.344-1.857.182-.467.398-.8.748-1.15.35-.35.683-.566 1.15-.748.352-.137.882-.3 1.857-.344 1.054-.048 1.37-.058 4.04-.058z" fill="#8795A1"/>
</svg>
