<svg width="22" height="22" fill="none" xmlns="http://www.w3.org/2000/svg">
  <path fill-rule="evenodd" clip-rule="evenodd" d="M8.935 13.582V7.989l5.403 2.806-5.403 2.787zM20.8 7.02s-.196-1.371-.795-1.976c-.76-.793-1.613-.797-2.004-.843C15.202 4 11.005 4 11.005 4h-.01S6.798 4 4 4.202c-.392.045-1.243.05-2.004.842-.6.604-.795 1.976-.795 1.976S1 8.63 1 10.242v1.51c0 1.61.2 3.221.2 3.221s.195 1.372.795 1.976c.76.793 1.76.768 2.205.85C5.8 17.954 11 18 11 18s4.203-.006 7.001-.208c.391-.047 1.243-.05 2.004-.843.6-.604.795-1.976.795-1.976s.2-1.61.2-3.221v-1.51c0-1.61-.2-3.222-.2-3.222z" fill="#8795A1"/>
</svg>
