<svg width="22" height="22" fill="none" xmlns="http://www.w3.org/2000/svg">
  <path fill-rule="evenodd" clip-rule="evenodd" d="M21 4.013a7.894 7.894 0 01-2.356.675 4.271 4.271 0 001.804-2.374 7.989 7.989 0 01-2.607 1.04A4.012 4.012 0 0014.846 2c-2.264 0-4.101 1.922-4.101 4.291 0 .337.035.663.105.978-3.41-.18-6.433-1.886-8.458-4.486a4.438 4.438 0 00-.555 2.16c0 1.488.724 2.802 1.825 3.572a3.97 3.97 0 01-1.859-.535v.053c0 2.08 1.415 3.815 3.293 4.208a3.84 3.84 0 01-1.081.15 3.86 3.86 0 01-.773-.076c.523 1.705 2.037 2.946 3.833 2.98A8.005 8.005 0 011 17.072 11.265 11.265 0 007.29 19c7.548 0 11.674-6.539 11.674-12.21 0-.187-.003-.373-.01-.556A8.524 8.524 0 0021 4.013" fill="#8795A1"/>
</svg>
