<svg width="22" height="22" fill="none" xmlns="http://www.w3.org/2000/svg">
  <path d="M9.138 9.63a1.053 1.053 0 100 2.105 1.053 1.053 0 000-2.105zm3.755 0a1.146 1.146 0 101.049 1.141 1.097 1.097 0 00-1.05-1.141zM17.89 1H4.11A2.114 2.114 0 002 3.119v13.906a2.113 2.113 0 002.109 2.119h11.664l-.546-1.903 1.317 1.224 1.245 1.152L20 21.571V3.12A2.113 2.113 0 0017.891 1zm-3.97 13.433s-.37-.442-.679-.833a3.246 3.246 0 001.862-1.224c-.37.246-.767.45-1.183.607a6.765 6.765 0 01-1.491.442 7.207 7.207 0 01-2.664-.01 8.649 8.649 0 01-1.512-.442 6.034 6.034 0 01-.751-.35c-.031-.02-.062-.031-.093-.052a.142.142 0 01-.04-.03 3.613 3.613 0 01-.289-.175 3.2 3.2 0 001.8 1.213c-.308.391-.689.854-.689.854a3.729 3.729 0 01-3.137-1.563c.033-2.085.54-4.136 1.481-5.997a5.086 5.086 0 012.89-1.08l.103.124a6.937 6.937 0 00-2.705 1.347s.226-.123.607-.298a7.722 7.722 0 012.335-.648.853.853 0 01.175-.02 8.384 8.384 0 015.174.967 6.846 6.846 0 00-2.562-1.307l.144-.165a5.086 5.086 0 012.89 1.08 13.774 13.774 0 011.482 5.997 3.76 3.76 0 01-3.148 1.563z" fill="#8795A1"/>
</svg>
